<svg xmlns="http://www.w3.org/2000/svg" width="28" height="28" viewBox="0 0 28 28" fill="none">
  <path fill-rule="evenodd" clip-rule="evenodd" d="M13.5 22C18.1944 22 22 18.1944 22 13.5C22 8.80558 18.1944 5 13.5 5C8.80558 5 5 8.80558 5 13.5C5 18.1944 8.80558 22 13.5 22ZM11.3363 10.5636C11.123 10.3502 10.777 10.3502 10.5636 10.5636C10.3502 10.777 10.3502 11.123 10.5636 11.3364L12.7273 13.5L10.5636 15.6636C10.3502 15.877 10.3502 16.223 10.5636 16.4364C10.777 16.6498 11.123 16.6498 11.3363 16.4364L13.5 14.2728L15.6636 16.4364C15.877 16.6498 16.223 16.6498 16.4364 16.4364C16.6497 16.223 16.6497 15.877 16.4364 15.6636L14.2728 13.5L16.4364 11.3364C16.6497 11.123 16.6497 10.777 16.4364 10.5636C16.223 10.3502 15.877 10.3502 15.6636 10.5636L13.5 12.7272L11.3363 10.5636Z" fill="#22282F"/>
</svg>