<svg width="23" height="22" viewBox="0 0 23 22" fill="none" xmlns="http://www.w3.org/2000/svg">
<path d="M15.5 7.5C17.0913 7.5 18.6174 8.13214 19.7426 9.25736C20.8679 10.3826 21.5 11.9087 21.5 13.5V20.5H17.5V13.5C17.5 12.9696 17.2893 12.4609 16.9142 12.0858C16.5391 11.7107 16.0304 11.5 15.5 11.5C14.9696 11.5 14.4609 11.7107 14.0858 12.0858C13.7107 12.4609 13.5 12.9696 13.5 13.5V20.5H9.5V13.5C9.5 11.9087 10.1321 10.3826 11.2574 9.25736C12.3826 8.13214 13.9087 7.5 15.5 7.5Z" stroke="black" stroke-width="2" stroke-linecap="round" stroke-linejoin="round"/>
<path d="M5.5 8.5H1.5V20.5H5.5V8.5Z" stroke="black" stroke-width="2" stroke-linecap="round" stroke-linejoin="round"/>
<path d="M3.5 5.5C4.60457 5.5 5.5 4.60457 5.5 3.5C5.5 2.39543 4.60457 1.5 3.5 1.5C2.39543 1.5 1.5 2.39543 1.5 3.5C1.5 4.60457 2.39543 5.5 3.5 5.5Z" stroke="black" stroke-width="2" stroke-linecap="round" stroke-linejoin="round"/>
</svg>
