<svg xmlns="http://www.w3.org/2000/svg" width="24" height="16" viewBox="0 0 16 20" fill="none">
  <path fill-rule="evenodd" clip-rule="evenodd" d="M8 0C8.55228 0 9 0.447715 9 1V16.5858L14.2929 11.2929C14.6834 10.9024 15.3166 10.9024 15.7071 11.2929C16.0976 11.6834 16.0976 12.3166 15.7071 12.7071L8.70711 19.7071C8.51957 19.8946 8.26522 20 8 20C7.73478 20 7.48043 19.8946 7.29289 19.7071L0.292893 12.7071C-0.0976311 12.3166 -0.0976311 11.6834 0.292893 11.2929C0.683418 10.9024 1.31658 10.9024 1.70711 11.2929L7 16.5858L7 1C7 0.447715 7.44772 0 8 0Z" fill="#111827"/>
</svg>