<svg width="30" height="29" viewBox="0 0 30 29" fill="none" xmlns="http://www.w3.org/2000/svg">
<path d="M24.6429 12.8276H9.23774L12.9227 8.94938C13.0762 8.79337 13.1986 8.60674 13.2829 8.40039C13.3671 8.19404 13.4114 7.9721 13.4133 7.74753C13.4151 7.52296 13.3745 7.30024 13.2937 7.09238C13.2129 6.88453 13.0935 6.69569 12.9426 6.53688C12.7917 6.37808 12.6123 6.25249 12.4148 6.16745C12.2173 6.08241 12.0057 6.03962 11.7923 6.04157C11.5789 6.04352 11.3681 6.09018 11.172 6.17882C10.9759 6.26746 10.7986 6.39631 10.6503 6.55785L4.22213 13.3232C4.07247 13.4803 3.95373 13.6669 3.87272 13.8724C3.7917 14.0779 3.75 14.2982 3.75 14.5206C3.75 14.7431 3.7917 14.9634 3.87272 15.1689C3.95373 15.3743 4.07247 15.561 4.22213 15.7181L10.6503 22.4834C10.9534 22.7915 11.3594 22.962 11.7807 22.9581C12.2021 22.9543 12.6052 22.7764 12.9031 22.4628C13.2011 22.1492 13.3701 21.725 13.3738 21.2815C13.3774 20.8381 13.2155 20.4108 12.9227 20.0919L9.23774 16.2103H24.6429C25.0692 16.2103 25.4779 16.0321 25.7793 15.7149C26.0807 15.3977 26.25 14.9675 26.25 14.5189C26.25 14.0704 26.0807 13.6402 25.7793 13.323C25.4779 13.0058 25.0692 12.8276 24.6429 12.8276Z" fill="#E5E8EB"/>
</svg>
