<svg width="16" height="17" viewBox="0 0 16 17" fill="none" xmlns="http://www.w3.org/2000/svg">
<path d="M9.34389 6.64389C8.98758 7.00021 8.5043 7.20039 8.00039 7.20039C7.49648 7.20039 7.01321 7.00021 6.65689 6.64389C6.30057 6.28757 6.10039 5.8043 6.10039 5.30039C6.10039 4.79648 6.30057 4.31321 6.65689 3.95689C7.01321 3.60057 7.49648 3.40039 8.00039 3.40039C8.5043 3.40039 8.98758 3.60057 9.34389 3.95689C9.70021 4.31321 9.90039 4.79648 9.90039 5.30039C9.90039 5.8043 9.70021 6.28757 9.34389 6.64389ZM2.92496 14.4004C2.97404 13.9022 3.09632 13.4129 3.28861 12.9487C3.5449 12.3299 3.92057 11.7677 4.39415 11.2941C4.86772 10.8206 5.42994 10.4449 6.04871 10.1886C6.66747 9.93231 7.33065 9.80039 8.00039 9.80039C8.67013 9.80039 9.33332 9.93231 9.95208 10.1886C10.5708 10.4449 11.1331 10.8206 11.6066 11.2941C12.0802 11.7677 12.4559 12.3299 12.7122 12.9487C12.9045 13.4129 13.0267 13.9022 13.0758 14.4004H2.92496Z" fill="#6B7280" stroke="#6B7280"/>
</svg>
