<svg width="25" height="24" viewBox="0 0 25 24" fill="none" xmlns="http://www.w3.org/2000/svg">
<path d="M21.5 3H5.5C5.23478 3 4.98043 3.10536 4.79289 3.29289C4.60536 3.48043 4.5 3.73478 4.5 4V6.59C4.5 7.113 4.713 7.627 5.083 7.997L10.5 13.414V21C10.5002 21.1704 10.5439 21.3379 10.6269 21.4867C10.7099 21.6354 10.8295 21.7605 10.9744 21.8502C11.1193 21.9398 11.2847 21.9909 11.4549 21.9988C11.6251 22.0066 11.7945 21.9709 11.947 21.895L15.947 19.895C16.286 19.725 16.5 19.379 16.5 19V13.414L21.917 7.997C22.287 7.627 22.5 7.113 22.5 6.59V4C22.5 3.73478 22.3946 3.48043 22.2071 3.29289C22.0196 3.10536 21.7652 3 21.5 3ZM14.793 12.293C14.7 12.3857 14.6262 12.4959 14.5759 12.6172C14.5256 12.7386 14.4998 12.8687 14.5 13V18.382L12.5 19.382V13C12.5002 12.8687 12.4744 12.7386 12.4241 12.6172C12.3738 12.4959 12.3 12.3857 12.207 12.293L6.5 6.59V5H20.501L20.503 6.583L14.793 12.293Z" fill="white"/>
</svg>
