<svg width="41" height="41" viewBox="0 0 41 41" fill="none" xmlns="http://www.w3.org/2000/svg">
<path d="M23.7807 23.6861C22.6235 24.876 21.1395 25.6959 19.5163 26.0424C17.8931 26.3888 16.2036 26.2461 14.6615 25.6323C13.1194 25.0186 11.7939 23.9613 10.8527 22.5943C9.91145 21.2272 9.39674 19.6117 9.37364 17.9521C9.35055 16.2925 9.82009 14.6633 10.7229 13.2706C11.6257 11.8779 12.9213 10.7841 14.4457 10.1277C15.9701 9.47126 17.655 9.28161 19.2872 9.58272C20.9194 9.88384 22.4257 10.6622 23.6155 11.8194C25.2087 13.3724 26.1208 15.4939 26.1518 17.7186C26.1828 19.9433 25.33 22.0894 23.7807 23.6861ZM13.4676 13.6562C12.641 14.5061 12.0851 15.582 11.87 16.7478C11.6549 17.9137 11.7904 19.1172 12.2592 20.2061C12.7281 21.2949 13.5094 22.2203 14.5042 22.8652C15.499 23.51 16.6627 23.8454 17.8481 23.8289C19.0335 23.8124 20.1875 23.4448 21.1639 22.7725C22.1404 22.1002 22.8956 21.1534 23.334 20.0519C23.7724 18.9504 23.8743 17.7436 23.6269 16.5842C23.3794 15.4248 22.7937 14.3648 21.9438 13.5382C20.8033 12.4316 19.2703 11.8226 17.6813 11.8447C16.0923 11.8668 14.5769 12.5183 13.4676 13.6562Z" fill="#1F2A37"/>
<path d="M16.5346 20.8197C16.3129 21.0476 16.0097 21.1782 15.6918 21.1826C15.3739 21.187 15.0672 21.065 14.8393 20.8433C14.0415 20.0674 13.5847 19.0064 13.5692 17.8937C13.5537 16.781 13.9809 15.7077 14.7567 14.9099C14.9784 14.682 15.2815 14.5515 15.5995 14.547C15.9174 14.5426 16.224 14.6647 16.452 14.8863C16.6799 15.108 16.8104 15.4112 16.8149 15.7291C16.8193 16.047 16.6972 16.3537 16.4756 16.5816C16.1431 16.9235 15.96 17.3835 15.9666 17.8604C15.9733 18.3372 16.1691 18.792 16.511 19.1245C16.7389 19.3461 16.8694 19.6493 16.8739 19.9672C16.8783 20.2851 16.7562 20.5918 16.5346 20.8197Z" fill="#1F2A37"/>
<path d="M28.9372 28.7011C28.7155 28.929 28.4124 29.0596 28.0944 29.064C27.7765 29.0684 27.4699 28.9464 27.2419 28.7247L22.0854 23.7097C21.8575 23.488 21.7269 23.1849 21.7225 22.867C21.7181 22.5491 21.8401 22.2424 22.0618 22.0145C22.2835 21.7865 22.5866 21.656 22.9045 21.6516C23.2225 21.6472 23.5291 21.7692 23.7571 21.9909L28.9136 27.0058C29.1415 27.2275 29.2721 27.5307 29.2765 27.8486C29.2809 28.1665 29.1589 28.4732 28.9372 28.7011Z" fill="#1F2A37"/>
</svg>
