<svg width="20" height="20" viewBox="0 0 20 20" fill="none" xmlns="http://www.w3.org/2000/svg">
<path d="M9.81572 14.41C9.98268 14.2538 10.2091 14.166 10.4452 14.166C10.6813 14.166 10.9077 14.2538 11.0747 14.41L12.2259 15.4875V6.66616C12.2259 6.44515 12.3197 6.2332 12.4867 6.07693C12.6536 5.92065 12.8801 5.83286 13.1162 5.83286C13.3524 5.83286 13.5788 5.92065 13.7458 6.07693C13.9128 6.2332 14.0066 6.44515 14.0066 6.66616V15.4875L15.1578 14.41C15.3257 14.2582 15.5506 14.1742 15.7841 14.1761C16.0175 14.178 16.2408 14.2656 16.4059 14.4201C16.571 14.5746 16.6646 14.7837 16.6667 15.0021C16.6687 15.2206 16.5789 15.4311 16.4168 15.5883L13.7457 18.0882C13.6628 18.1659 13.5641 18.2274 13.4555 18.269C13.3478 18.3114 13.2321 18.3332 13.1153 18.3332C12.9985 18.3332 12.8829 18.3114 12.7752 18.269C12.6666 18.2274 12.5679 18.1659 12.485 18.0882L9.81394 15.5883C9.64726 15.4318 9.55381 15.2198 9.55415 14.9988C9.55448 14.7778 9.64857 14.566 9.81572 14.41Z" fill="#1F2A37"/>
<path d="M3.58328 4.41042L6.25433 1.91053C6.33725 1.83276 6.43593 1.77128 6.54458 1.7297C6.76239 1.64544 7.007 1.64544 7.22481 1.7297C7.33346 1.77128 7.43214 1.83276 7.51506 1.91053L10.1861 4.41042C10.3483 4.56758 10.438 4.77807 10.436 4.99656C10.434 5.21505 10.3403 5.42405 10.1753 5.57855C10.0102 5.73305 9.78687 5.82069 9.55342 5.82259C9.31998 5.82449 9.09507 5.74049 8.92715 5.5887L7.77415 4.51125V13.3325C7.77415 13.5535 7.68035 13.7655 7.51337 13.9218C7.3464 14.078 7.11994 14.1658 6.8838 14.1658C6.64767 14.1658 6.42121 14.078 6.25423 13.9218C6.08726 13.7655 5.99346 13.5535 5.99346 13.3325V4.51125L4.84224 5.5887C4.67432 5.74049 4.44941 5.82449 4.21597 5.82259C3.98252 5.82069 3.75921 5.73305 3.59413 5.57855C3.42905 5.42405 3.33542 5.21505 3.33339 4.99656C3.33136 4.77807 3.4211 4.56758 3.58328 4.41042Z" fill="#1F2A37"/>
</svg>
