<svg width="20" height="20" viewBox="0 0 20 20" fill="none" xmlns="http://www.w3.org/2000/svg">
<path d="M10.1843 14.41C10.0173 14.2538 9.79089 14.166 9.55481 14.166C9.31872 14.166 9.09229 14.2538 8.92533 14.41L7.77411 15.4875V6.66616C7.77411 6.44515 7.68031 6.2332 7.51333 6.07693C7.34636 5.92065 7.1199 5.83286 6.88376 5.83286C6.64763 5.83286 6.42116 5.92065 6.25419 6.07693C6.08722 6.2332 5.99342 6.44515 5.99342 6.66616V15.4875L4.8422 14.41C4.67427 14.2582 4.44937 14.1742 4.21592 14.1761C3.98248 14.178 3.75917 14.2656 3.59409 14.4201C3.42901 14.5746 3.33538 14.7837 3.33335 15.0021C3.33132 15.2206 3.42106 15.4311 3.58324 15.5883L6.25429 18.0882C6.33721 18.1659 6.43589 18.2274 6.54454 18.269C6.65222 18.3114 6.76785 18.3332 6.88465 18.3332C7.00146 18.3332 7.11709 18.3114 7.22477 18.269C7.33342 18.2274 7.4321 18.1659 7.51502 18.0882L10.1861 15.5883C10.3527 15.4318 10.4462 15.2198 10.4459 14.9988C10.4455 14.7778 10.3514 14.566 10.1843 14.41Z" fill="#1F2A37"/>
<path d="M16.4167 4.41042L13.7457 1.91053C13.6628 1.83276 13.5641 1.77128 13.4554 1.7297C13.2376 1.64544 12.993 1.64544 12.7752 1.7297C12.6665 1.77128 12.5679 1.83276 12.4849 1.91053L9.8139 4.41042C9.65171 4.56758 9.56197 4.77807 9.564 4.99656C9.56603 5.21505 9.65966 5.42405 9.82474 5.57855C9.98982 5.73305 10.2131 5.82069 10.4466 5.82259C10.68 5.82449 10.9049 5.74049 11.0728 5.5887L12.2258 4.51125V13.3325C12.2258 13.5535 12.3197 13.7655 12.4866 13.9218C12.6536 14.078 12.8801 14.1658 13.1162 14.1658C13.3523 14.1658 13.5788 14.078 13.7458 13.9218C13.9127 13.7655 14.0065 13.5535 14.0065 13.3325V4.51125L15.1578 5.5887C15.3257 5.74049 15.5506 5.82449 15.784 5.82259C16.0175 5.82069 16.2408 5.73305 16.4059 5.57855C16.5709 5.42405 16.6646 5.21505 16.6666 4.99656C16.6686 4.77807 16.5789 4.56758 16.4167 4.41042Z" fill="#1F2A37"/>
</svg>
