<svg width="23" height="24" viewBox="0 0 23 24" fill="none" xmlns="http://www.w3.org/2000/svg">
<path d="M8.75 19.5134C3.75 21.0134 3.75 17.0134 1.75 16.5134M15.75 22.5134V18.6434C15.7875 18.1666 15.7231 17.6872 15.561 17.2372C15.3989 16.7872 15.1429 16.3768 14.81 16.0334C17.95 15.6834 21.25 14.4934 21.25 9.0334C21.2497 7.63722 20.7127 6.29459 19.75 5.2834C20.2059 4.0619 20.1736 2.71175 19.66 1.5134C19.66 1.5134 18.48 1.1634 15.75 2.9934C13.458 2.37222 11.042 2.37222 8.75 2.9934C6.02 1.1634 4.84 1.5134 4.84 1.5134C4.32638 2.71175 4.29414 4.0619 4.75 5.2834C3.78013 6.3021 3.24252 7.65686 3.25 9.0634C3.25 14.4834 6.55 15.6734 9.69 16.0634C9.361 16.4034 9.10726 16.8088 8.94531 17.2533C8.78335 17.6978 8.71681 18.1715 8.75 18.6434V22.5134" stroke="black" stroke-width="2" stroke-linecap="round" stroke-linejoin="round"/>
</svg>
