<svg width="23" height="18" viewBox="0 0 23 18" fill="none" xmlns="http://www.w3.org/2000/svg">
<path d="M22.0417 1.125C21.124 1.71604 20.1079 2.16809 19.0325 2.46375C18.4554 1.85782 17.6883 1.42835 16.8351 1.23343C15.9819 1.03851 15.0837 1.08754 14.262 1.37389C13.4403 1.66025 12.7348 2.1701 12.2408 2.8345C11.7468 3.4989 11.4883 4.28579 11.5 5.08875V5.96375C9.8159 6.00362 8.1471 5.66258 6.64226 4.97101C5.13742 4.27944 3.84326 3.2588 2.87504 2C2.87504 2 -0.958293 9.875 7.66671 13.375C5.69305 14.5982 3.3419 15.2116 0.958374 15.125C9.58337 19.5 20.125 15.125 20.125 5.0625C20.1242 4.81877 20.0985 4.57564 20.0484 4.33625C21.0265 3.45555 21.7167 2.34362 22.0417 1.125V1.125Z" stroke="black" stroke-width="2" stroke-linecap="round" stroke-linejoin="round"/>
</svg>
